<svg xmlns="http://www.w3.org/2000/svg" style="display:none;">

<symbol id="chat-icon" width="24" height="24" viewBox="0 0 24 24" fill="none" >
<path fill-rule="evenodd" clip-rule="evenodd" d="M15.3909 13.1304H16.9889V11.6304H15.3909V13.1304ZM11.6559 13.1304H13.2549V11.6304H11.6559V13.1304ZM7.92188 13.1304H9.52088V11.6304H7.92188V13.1304ZM19.3569 5.11944C17.5219 3.28444 15.0809 2.27344 12.4809 2.27344C9.88188 2.27344 7.43888 3.28444 5.60388 5.12044C3.76388 6.95944 2.75188 9.40444 2.75388 12.0034C2.75388 14.6394 4.13787 17.1514 4.63987 17.9754L2.29688 21.7114L3.20988 21.7034C3.26788 21.7034 9.01987 21.6534 12.2699 21.7234C12.3429 21.7244 12.4149 21.7254 12.4869 21.7254C15.0829 21.7254 17.5149 20.7184 19.3569 18.8754C23.1489 15.0824 23.1489 8.91244 19.3569 5.11944Z" fill="#00A1E6"/>
</symbol>

<symbol id="chavron-icon" width="48" height="48" viewBox="0 0 48 48" fill="none">
<path fill-rule="evenodd" clip-rule="evenodd" d="M30.7518 19.4392L23.7518 26.4392L16.7518 19.4392L15.6911 20.4999L23.7518 28.5605L31.8125 20.4999L30.7518 19.4392Z" fill="#BDBDF5"/>
</symbol>

<symbol id="ticket-icon" width="31" height="32" viewBox="0 0 31 32" fill="none">
<path d="M4.93359 14.4887C4.93359 11.4465 4.93359 9.92544 5.61791 8.8078C6.0017 8.18096 6.52862 7.65406 7.15545 7.27025C8.27309 6.58594 9.79419 6.58594 12.8364 6.58594C13.3027 6.58594 13.5359 6.58594 13.6938 6.63811C13.8489 6.68936 13.8118 6.67121 13.9473 6.76253C14.0852 6.85551 14.4373 7.31068 15.1414 8.22101C15.6 8.81404 16.3102 9.19332 17.1314 9.19332C18.029 9.19404 18.7975 8.74018 19.2491 8.0491C19.7291 7.31439 19.9692 6.94701 20.0631 6.86024C20.2659 6.67292 20.2447 6.6844 20.5124 6.61711C20.6364 6.58594 20.8326 6.58594 21.2251 6.58594C23.3762 6.58594 24.4518 6.58594 25.3011 6.93496C26.4502 7.40714 27.3623 8.31943 27.8346 9.46841C28.1836 10.3177 28.1836 11.3933 28.1836 13.5445V18.4724C28.1836 20.6102 28.1836 21.679 27.8388 22.5238C27.3665 23.6811 26.4481 24.5996 25.2908 25.072C24.446 25.4167 23.3771 25.4167 21.2394 25.4167C20.8517 25.4167 20.6578 25.4167 20.5372 25.3873C20.2611 25.3198 20.304 25.3426 20.0924 25.1529C20 25.07 19.7343 24.6824 19.2031 23.9073C18.7662 23.2697 18.0423 22.8409 17.2106 22.8117H17.1337H17.1314C16.3117 22.8117 15.6003 23.1926 15.1399 23.7868C14.4371 24.6939 14.0857 25.1475 13.9479 25.2404C13.8126 25.3315 13.8494 25.3135 13.6946 25.3647C13.5367 25.4167 13.3033 25.4167 12.8365 25.4167C9.79419 25.4167 8.27306 25.4167 7.15539 24.7324C6.52861 24.3485 6.00172 23.8216 5.61794 23.1949C5.05248 22.2714 4.95425 21.0724 4.93717 18.9675" stroke="#EB781B" stroke-width="1.5" stroke-linecap="round" stroke-linejoin="round"/>
<path d="M17.1289 13.0742V22.8103" stroke="#EB781B" stroke-width="1.5" stroke-linecap="round" stroke-linejoin="round"/>
<path d="M23.2344 13.3164V18.686" stroke="#EB781B" stroke-width="1.5" stroke-linecap="round" stroke-linejoin="round"/>
</symbol>

<symbol id="arrow-left-icon" width="152" height="11" viewBox="0 0 152 11" fill="none">
<path d="M151.667 5.5C151.667 6.97276 150.473 8.16667 149 8.16667C147.527 8.16667 146.333 6.97276 146.333 5.5C146.333 4.02724 147.527 2.83333 149 2.83333C150.473 2.83333 151.667 4.02724 151.667 5.5ZM0.646454 5.85357C0.451187 5.6583 0.451187 5.34172 0.646454 5.14646L3.82843 1.96448C4.0237 1.76922 4.34027 1.76922 4.53554 1.96448C4.7308 2.15974 4.7308 2.47632 4.53554 2.67159L1.70711 5.50001L4.53554 8.32844C4.7308 8.5237 4.7308 8.84028 4.53554 9.03555C4.34027 9.23081 4.0237 9.23081 3.82843 9.03555L0.646454 5.85357ZM149 5.5L149 6L1 6.00001L1 5.50001L1 5.00001L149 5L149 5.5Z" fill="url(#paint0_linear_175_14918)"/>
<defs>
<linearGradient id="paint0_linear_175_14918" x1="1" y1="6.00001" x2="149" y2="6" gradientUnits="userSpaceOnUse">
<stop stop-color="white"/>
<stop offset="1" stop-color="#5CA8FF" stop-opacity="0"/>
</linearGradient>
</defs>
</symbol>


<symbol id="date-icon" width="36" height="36" viewBox="0 0 36 36" fill="none">
<rect width="36" height="36" rx="8" fill="#F4F4F5"/>
<path d="M10.5781 15.8359H25.4314" stroke="#71717A" stroke-width="1.5" stroke-linecap="round" stroke-linejoin="round"/>
<path d="M21.7031 19.0918H21.7101" stroke="#71717A" stroke-width="1.5" stroke-linecap="round" stroke-linejoin="round"/>
<path d="M18.0078 19.0918H18.0148" stroke="#71717A" stroke-width="1.5" stroke-linecap="round" stroke-linejoin="round"/>
<path d="M14.2969 19.0918H14.3038" stroke="#71717A" stroke-width="1.5" stroke-linecap="round" stroke-linejoin="round"/>
<path d="M21.7031 22.332H21.7101" stroke="#71717A" stroke-width="1.5" stroke-linecap="round" stroke-linejoin="round"/>
<path d="M18.0078 22.332H18.0148" stroke="#71717A" stroke-width="1.5" stroke-linecap="round" stroke-linejoin="round"/>
<path d="M14.2969 22.332H14.3038" stroke="#71717A" stroke-width="1.5" stroke-linecap="round" stroke-linejoin="round"/>
<path d="M21.3711 9.66797V12.4103" stroke="#71717A" stroke-width="1.5" stroke-linecap="round" stroke-linejoin="round"/>
<path d="M14.6406 9.66797V12.4103" stroke="#71717A" stroke-width="1.5" stroke-linecap="round" stroke-linejoin="round"/>
<path fill-rule="evenodd" clip-rule="evenodd" d="M21.5319 10.9844H14.4758C12.0286 10.9844 10.5 12.3477 10.5 14.8536V22.3949C10.5 24.9402 12.0286 26.335 14.4758 26.335H21.5242C23.9791 26.335 25.5 24.9639 25.5 22.458V14.8536C25.5077 12.3477 23.9868 10.9844 21.5319 10.9844Z" stroke="#71717A" stroke-width="1.5" stroke-linecap="round" stroke-linejoin="round"/>
</symbol>


<symbol id="time-icon" width="37" height="36" viewBox="0 0 37 36" fill="none">
<rect x="0.5" width="36" height="36" rx="8" fill="#F4F4F5"/>
<path d="M18.5 25.5C22.6424 25.5 26 22.1416 26 18C26 13.8576 22.6424 10.5 18.5 10.5C14.3576 10.5 11 13.8576 11 18C11 22.1416 14.3576 25.5 18.5 25.5Z" stroke="#71717A" stroke-width="1.5" stroke-linecap="round" stroke-linejoin="round"/>
<path d="M20.8722 20.1427L18.2266 18.5616V15.1465" stroke="#71717A" stroke-width="1.5" stroke-linecap="round" stroke-linejoin="round"/>
</symbol>


<symbol id="go-icon" width="48" height="48" viewBox="0 0 48 48" fill="none">
<rect x="0.5" y="0.5" width="47" height="47" rx="7.5" stroke="#2F2D87"/>
<path d="M18.6464 23.6464C18.4512 23.8417 18.4512 24.1583 18.6464 24.3536L21.8284 27.5355C22.0237 27.7308 22.3403 27.7308 22.5355 27.5355C22.7308 27.3403 22.7308 27.0237 22.5355 26.8284L19.7071 24L22.5355 21.1716C22.7308 20.9763 22.7308 20.6597 22.5355 20.4645C22.3403 20.2692 22.0237 20.2692 21.8284 20.4645L18.6464 23.6464ZM29 24V23.5H19V24V24.5H29V24Z" fill="#2F2D87"/>
</symbol>

<symbol id="arrow-left-small-icon" width="49" height="48" viewBox="0 0 49 48" fill="none">
<path d="M17.3516 23.75L31.7518 23.75" stroke="#EB781B" stroke-width="1.5" stroke-linecap="square"/>
<path d="M22.8 17.7264L16.75 23.7504L22.8 29.7754" stroke="#EB781B" stroke-width="1.5" stroke-linecap="square"/>
</symbol>


</svg>
