<svg xmlns="http://www.w3.org/2000/svg" style="display:none;">

<symbol id="chat-icon" width="24" height="24" viewBox="0 0 24 24" fill="none" >
<path fill-rule="evenodd" clip-rule="evenodd" d="M15.3909 13.1304H16.9889V11.6304H15.3909V13.1304ZM11.6559 13.1304H13.2549V11.6304H11.6559V13.1304ZM7.92188 13.1304H9.52088V11.6304H7.92188V13.1304ZM19.3569 5.11944C17.5219 3.28444 15.0809 2.27344 12.4809 2.27344C9.88188 2.27344 7.43888 3.28444 5.60388 5.12044C3.76388 6.95944 2.75188 9.40444 2.75388 12.0034C2.75388 14.6394 4.13787 17.1514 4.63987 17.9754L2.29688 21.7114L3.20988 21.7034C3.26788 21.7034 9.01987 21.6534 12.2699 21.7234C12.3429 21.7244 12.4149 21.7254 12.4869 21.7254C15.0829 21.7254 17.5149 20.7184 19.3569 18.8754C23.1489 15.0824 23.1489 8.91244 19.3569 5.11944Z" fill="#00A1E6"/>
</symbol>

<symbol id="chavron-icon" width="48" height="48" viewBox="0 0 48 48" fill="none">
<path fill-rule="evenodd" clip-rule="evenodd" d="M30.7518 19.4392L23.7518 26.4392L16.7518 19.4392L15.6911 20.4999L23.7518 28.5605L31.8125 20.4999L30.7518 19.4392Z" fill="#BDBDF5"/>
</symbol>

<symbol id="ticket-icon" width="31" height="32" viewBox="0 0 31 32" fill="none">
<path d="M4.93359 14.4887C4.93359 11.4465 4.93359 9.92544 5.61791 8.8078C6.0017 8.18096 6.52862 7.65406 7.15545 7.27025C8.27309 6.58594 9.79419 6.58594 12.8364 6.58594C13.3027 6.58594 13.5359 6.58594 13.6938 6.63811C13.8489 6.68936 13.8118 6.67121 13.9473 6.76253C14.0852 6.85551 14.4373 7.31068 15.1414 8.22101C15.6 8.81404 16.3102 9.19332 17.1314 9.19332C18.029 9.19404 18.7975 8.74018 19.2491 8.0491C19.7291 7.31439 19.9692 6.94701 20.0631 6.86024C20.2659 6.67292 20.2447 6.6844 20.5124 6.61711C20.6364 6.58594 20.8326 6.58594 21.2251 6.58594C23.3762 6.58594 24.4518 6.58594 25.3011 6.93496C26.4502 7.40714 27.3623 8.31943 27.8346 9.46841C28.1836 10.3177 28.1836 11.3933 28.1836 13.5445V18.4724C28.1836 20.6102 28.1836 21.679 27.8388 22.5238C27.3665 23.6811 26.4481 24.5996 25.2908 25.072C24.446 25.4167 23.3771 25.4167 21.2394 25.4167C20.8517 25.4167 20.6578 25.4167 20.5372 25.3873C20.2611 25.3198 20.304 25.3426 20.0924 25.1529C20 25.07 19.7343 24.6824 19.2031 23.9073C18.7662 23.2697 18.0423 22.8409 17.2106 22.8117H17.1337H17.1314C16.3117 22.8117 15.6003 23.1926 15.1399 23.7868C14.4371 24.6939 14.0857 25.1475 13.9479 25.2404C13.8126 25.3315 13.8494 25.3135 13.6946 25.3647C13.5367 25.4167 13.3033 25.4167 12.8365 25.4167C9.79419 25.4167 8.27306 25.4167 7.15539 24.7324C6.52861 24.3485 6.00172 23.8216 5.61794 23.1949C5.05248 22.2714 4.95425 21.0724 4.93717 18.9675" stroke="#EB781B" stroke-width="1.5" stroke-linecap="round" stroke-linejoin="round"/>
<path d="M17.1289 13.0742V22.8103" stroke="#EB781B" stroke-width="1.5" stroke-linecap="round" stroke-linejoin="round"/>
<path d="M23.2344 13.3164V18.686" stroke="#EB781B" stroke-width="1.5" stroke-linecap="round" stroke-linejoin="round"/>
</symbol>

<symbol id="arrow-left-icon" width="152" height="11" viewBox="0 0 152 11" fill="none">
<path d="M151.667 5.5C151.667 6.97276 150.473 8.16667 149 8.16667C147.527 8.16667 146.333 6.97276 146.333 5.5C146.333 4.02724 147.527 2.83333 149 2.83333C150.473 2.83333 151.667 4.02724 151.667 5.5ZM0.646454 5.85357C0.451187 5.6583 0.451187 5.34172 0.646454 5.14646L3.82843 1.96448C4.0237 1.76922 4.34027 1.76922 4.53554 1.96448C4.7308 2.15974 4.7308 2.47632 4.53554 2.67159L1.70711 5.50001L4.53554 8.32844C4.7308 8.5237 4.7308 8.84028 4.53554 9.03555C4.34027 9.23081 4.0237 9.23081 3.82843 9.03555L0.646454 5.85357ZM149 5.5L149 6L1 6.00001L1 5.50001L1 5.00001L149 5L149 5.5Z" fill="url(#paint0_linear_175_14918)"/>
<defs>
<linearGradient id="paint0_linear_175_14918" x1="1" y1="6.00001" x2="149" y2="6" gradientUnits="userSpaceOnUse">
<stop stop-color="white"/>
<stop offset="1" stop-color="#5CA8FF" stop-opacity="0"/>
</linearGradient>
</defs>
</symbol>


<symbol id="date-icon" width="36" height="36" viewBox="0 0 36 36" fill="none">
<rect width="36" height="36" rx="8" fill="#F4F4F5"/>
<path d="M10.5781 15.8359H25.4314" stroke="#71717A" stroke-width="1.5" stroke-linecap="round" stroke-linejoin="round"/>
<path d="M21.7031 19.0918H21.7101" stroke="#71717A" stroke-width="1.5" stroke-linecap="round" stroke-linejoin="round"/>
<path d="M18.0078 19.0918H18.0148" stroke="#71717A" stroke-width="1.5" stroke-linecap="round" stroke-linejoin="round"/>
<path d="M14.2969 19.0918H14.3038" stroke="#71717A" stroke-width="1.5" stroke-linecap="round" stroke-linejoin="round"/>
<path d="M21.7031 22.332H21.7101" stroke="#71717A" stroke-width="1.5" stroke-linecap="round" stroke-linejoin="round"/>
<path d="M18.0078 22.332H18.0148" stroke="#71717A" stroke-width="1.5" stroke-linecap="round" stroke-linejoin="round"/>
<path d="M14.2969 22.332H14.3038" stroke="#71717A" stroke-width="1.5" stroke-linecap="round" stroke-linejoin="round"/>
<path d="M21.3711 9.66797V12.4103" stroke="#71717A" stroke-width="1.5" stroke-linecap="round" stroke-linejoin="round"/>
<path d="M14.6406 9.66797V12.4103" stroke="#71717A" stroke-width="1.5" stroke-linecap="round" stroke-linejoin="round"/>
<path fill-rule="evenodd" clip-rule="evenodd" d="M21.5319 10.9844H14.4758C12.0286 10.9844 10.5 12.3477 10.5 14.8536V22.3949C10.5 24.9402 12.0286 26.335 14.4758 26.335H21.5242C23.9791 26.335 25.5 24.9639 25.5 22.458V14.8536C25.5077 12.3477 23.9868 10.9844 21.5319 10.9844Z" stroke="#71717A" stroke-width="1.5" stroke-linecap="round" stroke-linejoin="round"/>
</symbol>


<symbol id="time-icon" width="37" height="36" viewBox="0 0 37 36" fill="none">
<rect x="0.5" width="36" height="36" rx="8" fill="#F4F4F5"/>
<path d="M18.5 25.5C22.6424 25.5 26 22.1416 26 18C26 13.8576 22.6424 10.5 18.5 10.5C14.3576 10.5 11 13.8576 11 18C11 22.1416 14.3576 25.5 18.5 25.5Z" stroke="#71717A" stroke-width="1.5" stroke-linecap="round" stroke-linejoin="round"/>
<path d="M20.8722 20.1427L18.2266 18.5616V15.1465" stroke="#71717A" stroke-width="1.5" stroke-linecap="round" stroke-linejoin="round"/>
</symbol>


<symbol id="go-icon" width="48" height="48" viewBox="0 0 48 48" fill="none">
<rect x="0.5" y="0.5" width="47" height="47" rx="7.5" stroke="#2F2D87"/>
<path d="M18.6464 23.6464C18.4512 23.8417 18.4512 24.1583 18.6464 24.3536L21.8284 27.5355C22.0237 27.7308 22.3403 27.7308 22.5355 27.5355C22.7308 27.3403 22.7308 27.0237 22.5355 26.8284L19.7071 24L22.5355 21.1716C22.7308 20.9763 22.7308 20.6597 22.5355 20.4645C22.3403 20.2692 22.0237 20.2692 21.8284 20.4645L18.6464 23.6464ZM29 24V23.5H19V24V24.5H29V24Z" fill="#2F2D87"/>
</symbol>

<symbol id="go-fill-icon" width="49" height="48" viewBox="0 0 49 48" fill="none">
<rect x="0.333008" width="48" height="48" rx="8" fill="#2F2D87"/>
<path d="M18.9795 23.6464C18.7842 23.8417 18.7842 24.1583 18.9795 24.3536L22.1614 27.5355C22.3567 27.7308 22.6733 27.7308 22.8685 27.5355C23.0638 27.3403 23.0638 27.0237 22.8685 26.8284L20.0401 24L22.8685 21.1716C23.0638 20.9763 23.0638 20.6597 22.8685 20.4645C22.6733 20.2692 22.3567 20.2692 22.1614 20.4645L18.9795 23.6464ZM29.333 24V23.5H19.333V24V24.5H29.333V24Z" fill="#F4F4F5"/>
</symbol>

<symbol id="arrow-left-small-icon" width="49" height="48" viewBox="0 0 49 48" fill="none">
<path d="M17.3516 23.75L31.7518 23.75" stroke="#EB781B" stroke-width="1.5" stroke-linecap="square"/>
<path d="M22.8 17.7264L16.75 23.7504L22.8 29.7754" stroke="#EB781B" stroke-width="1.5" stroke-linecap="square"/>
</symbol>


<symbol id="user-faq-icon" width="24" height="24" viewBox="0 0 24 24" fill="none">
<path fill-rule="evenodd" clip-rule="evenodd" d="M12.1461 3.30078C14.8521 3.30078 17.0461 5.49478 17.0461 8.20078C17.0461 10.9068 14.8521 13.1008 12.1461 13.1008C9.44009 13.1008 7.24609 10.9068 7.24609 8.20078C7.24609 5.49478 9.44009 3.30078 12.1461 3.30078Z" fill="#00A1E6"/>
<path fill-rule="evenodd" clip-rule="evenodd" d="M14.4457 14H9.9457C7.4457 14 5.3457 16.1 5.3457 18.6V18.9C5.3457 19.9 6.1457 20.7 7.1457 20.7H17.1457C18.1457 20.7 19.0457 20 18.9457 18.9V18.6C19.0457 16.1 16.9457 14 14.4457 14Z" fill="#00A1E6"/>
</symbol>


<symbol id="email-icon" width="30" height="30" viewBox="0 0 30 30" fill="none">
<path d="M26.25 18.8675C26.25 22.324 23.944 25.1335 20.5229 25.125H9.47716C6.05595 25.1335 3.75 22.324 3.75 18.8675V11.141C3.75 7.68811 6.05595 4.875 9.47716 4.875H20.5229C23.944 4.875 26.25 7.68811 26.25 11.141V18.8675Z" stroke="#F2881D" stroke-width="2" stroke-linecap="round" stroke-linejoin="round"/>
<path d="M25.7812 8.7168L17.6507 15.328C16.1196 16.5445 13.9496 16.5445 12.4184 15.328L4.21875 8.7168" stroke="#F2881D" stroke-width="2" stroke-linecap="round" stroke-linejoin="round"/>
<path d="M10.8537 14.0664L4.21094 21.2809M25.7832 21.2819L19.2136 14.0674" stroke="#F2881D" stroke-width="2" stroke-linecap="round" stroke-linejoin="round"/>
</symbol>

<symbol id="journey-icon" width="30" height="30" viewBox="0 0 30 30" fill="none" >
<path d="M15.1795 7.74287L18.3028 7.72462C20.093 7.72097 21.5451 9.17557 21.5379 10.9658L21.533 12.2307C21.5258 14.0088 20.082 15.4476 18.3028 15.4476H10.6248C8.84061 15.4476 7.39453 16.8936 7.39453 18.6766V19.922C7.39453 21.7063 8.84303 23.1523 10.6272 23.151L15.1905 23.145" stroke="#F2881D" stroke-width="2" stroke-linecap="round" stroke-linejoin="round"/>
<path fill-rule="evenodd" clip-rule="evenodd" d="M8.46199 11.6079C7.93659 11.6079 5.17578 9.37376 5.17578 7.03499C5.17578 5.2204 6.64741 3.75 8.46199 3.75C10.2766 3.75 11.7482 5.2204 11.7482 7.03499C11.7482 9.37376 8.98739 11.6079 8.46199 11.6079Z" stroke="#F2881D" stroke-width="2" stroke-linecap="round" stroke-linejoin="round"/>
<path d="M8.46094 7.05037V7.00781" stroke="#F2881D" stroke-width="1.5" stroke-linecap="round" stroke-linejoin="round"/>
<path fill-rule="evenodd" clip-rule="evenodd" d="M21.5361 26.2506C21.0107 26.2506 18.25 24.0165 18.25 21.6776C18.25 19.8631 19.7216 18.3926 21.5361 18.3926C23.3507 18.3926 24.8224 19.8631 24.8224 21.6776C24.8224 24.0165 22.0615 26.2506 21.5361 26.2506Z" stroke="#F2881D" stroke-width="2" stroke-linecap="round" stroke-linejoin="round"/>
<path d="M21.5391 21.693V21.6504" stroke="#F2881D" stroke-width="1.5" stroke-linecap="round" stroke-linejoin="round"/>
</symbol>

<symbol id="phone-icon" width="31" height="30" viewBox="0 0 31 30" fill="none">
<path d="M7.12525 24.5969C6.65205 24.6532 6.1723 24.6136 5.7148 24.4803C5.2573 24.3469 4.83147 24.1225 4.46274 23.8206C3.74524 23.1219 3.45397 21.9981 3.45397 19.9456L3.4565 19.8144C3.4336 19.2673 3.52745 18.7216 3.73176 18.2136C3.93609 17.7056 4.24619 17.247 4.6415 16.8681C6.409 15.0794 10.1115 14.1719 15.6415 14.1719H15.6514C21.1814 14.1719 24.8814 15.0781 26.6514 16.8669C27.0448 17.2451 27.3533 17.7026 27.5567 18.209C27.76 18.7154 27.8538 19.2591 27.8315 19.8044C27.8315 19.8369 27.8315 19.9019 27.8315 19.9294C27.8315 21.9894 27.5402 23.1144 26.8239 23.8119C25.9752 24.6394 24.8014 24.6144 23.3152 24.5706C22.9602 24.5619 22.5302 24.5419 22.1589 24.5519C21.4398 24.5894 20.7297 24.379 20.1469 23.9558C19.5643 23.5326 19.1445 22.9224 18.9578 22.2269C18.4903 21.1581 18.1203 20.3144 15.6415 20.3144C13.1628 20.3144 12.7952 21.1581 12.3289 22.2281C12.1427 22.9237 11.7232 23.5342 11.1407 23.9577C10.5583 24.3811 9.8481 24.5918 9.12895 24.5544C8.71895 24.5544 8.34026 24.5644 7.99026 24.5731C7.68776 24.5894 7.40025 24.5969 7.12525 24.5969ZM15.6489 16.0506H15.6415C9.39772 16.0506 6.93773 17.2131 5.97397 18.1906C5.7561 18.3932 5.58573 18.6415 5.47509 18.9177C5.05388 19.9691 5.26662 21.5186 5.774 22.4769C6.059 22.7544 6.88774 22.7331 7.94274 22.7081C8.30774 22.6981 8.70145 22.6881 9.12895 22.6881C10.0864 22.6881 10.2289 22.3619 10.6102 21.4869C11.1389 20.2769 11.9352 18.4494 15.6415 18.4481C19.3478 18.4481 20.1477 20.2756 20.6752 21.4844C21.0589 22.3594 21.2014 22.6856 22.1589 22.6856H22.1689C22.5989 22.6856 22.9965 22.6956 23.3628 22.7056C24.409 22.7331 25.2378 22.7531 25.514 22.4769C26.0048 21.5291 26.2362 19.9627 25.8162 18.9154C25.7055 18.6394 25.5348 18.3914 25.3164 18.1894C24.3489 17.2119 21.8914 16.0506 15.6489 16.0506Z" fill="#EB781B"/>
<path d="M18.3065 11.847C18.1198 11.847 17.9373 11.7908 17.7828 11.6857C17.1507 11.2568 16.4043 11.0275 15.6403 11.0275C14.8764 11.0275 14.13 11.2568 13.4978 11.6857C13.3958 11.7547 13.2812 11.8028 13.1605 11.8275C13.0399 11.8521 12.9157 11.8528 12.7947 11.8294C12.6738 11.806 12.5587 11.759 12.456 11.6912C12.3532 11.6233 12.2649 11.5359 12.196 11.4338C12.127 11.3318 12.0788 11.2172 12.0541 11.0966C12.0295 10.9759 12.0288 10.8516 12.0522 10.7307C12.0756 10.6098 12.1226 10.4948 12.1905 10.392C12.2584 10.2893 12.3458 10.2009 12.4478 10.132C13.3897 9.49235 14.5019 9.15039 15.6403 9.15039C16.7788 9.15039 17.891 9.49235 18.8328 10.132C18.9995 10.2443 19.1258 10.4072 19.1928 10.5967C19.2599 10.7863 19.2643 10.9923 19.2053 11.1845C19.1463 11.3767 19.0272 11.5448 18.8653 11.6641C18.7035 11.7834 18.5077 11.8475 18.3065 11.847Z" fill="#EB781B"/>
<path d="M10.2808 9.14753C10.0867 9.14746 9.89741 9.08712 9.73905 8.97484C9.5807 8.86258 9.46106 8.70392 9.39673 8.52077C9.33239 8.33763 9.32651 8.13903 9.37986 7.95238C9.43321 7.76574 9.54316 7.60027 9.69458 7.47879C11.379 6.11997 13.4779 5.37891 15.6421 5.37891C17.8062 5.37891 19.9051 6.11997 21.5896 7.47879C21.7805 7.63503 21.9021 7.86023 21.9281 8.10556C21.9541 8.35089 21.8824 8.59658 21.7284 8.78936C21.5745 8.98213 21.3507 9.10644 21.1057 9.13534C20.8607 9.16426 20.6142 9.09543 20.4196 8.94378C19.067 7.85242 17.3814 7.25721 15.6432 7.25721C13.9052 7.25721 12.2197 7.85242 10.8671 8.94378C10.7006 9.07656 10.4938 9.14846 10.2808 9.14753Z" fill="#EB781B"/>
</symbol>


<symbol id="instagram-icon" width="24" height="26" viewBox="0 0 24 26" fill="none">
<path fill-rule="evenodd" clip-rule="evenodd" d="M11.8468 11.3438C10.3288 11.3438 9.09375 12.5768 9.09375 14.0938C9.09375 15.6108 10.3288 16.8438 11.8468 16.8438C13.3648 16.8438 14.5988 15.6108 14.5988 14.0938C14.5988 12.5768 13.3648 11.3438 11.8468 11.3438Z" fill="white"/>
<path fill-rule="evenodd" clip-rule="evenodd" d="M16.864 10.1727C16.294 10.1727 15.829 9.71067 15.829 9.14367C15.829 8.57467 16.294 8.11267 16.864 8.11267C17.434 8.11267 17.898 8.57467 17.898 9.14367C17.898 9.71067 17.434 10.1727 16.864 10.1727ZM11.844 18.3437C9.5 18.3437 7.592 16.4377 7.592 14.0937C7.592 11.7497 9.5 9.84367 11.844 9.84367C14.189 9.84367 16.096 11.7497 16.096 14.0937C16.096 16.4377 14.189 18.3437 11.844 18.3437ZM16.217 4.26367H7.782C4.623 4.26367 2.5 6.48567 2.5 9.79367V17.7337C2.5 21.0407 4.623 23.2637 7.782 23.2637H16.216C19.376 23.2637 21.5 21.0407 21.5 17.7337V9.79367C21.5 6.48567 19.377 4.26367 16.217 4.26367Z" fill="white"/>
</symbol>


<symbol id="telegram-icon" width="24" height="26" viewBox="0 0 24 26" fill="none" >
<path fill-rule="evenodd" clip-rule="evenodd" d="M12.5558 18.5329L10.2518 20.6739C9.96978 20.9369 9.51078 20.7209 9.53678 20.3359C9.60878 19.2479 9.72078 17.5949 9.79578 16.6759C9.80778 16.5309 9.92978 16.3689 10.0458 16.2639C12.7368 13.8239 15.4338 11.3899 18.1298 8.95394C18.2298 8.86394 18.3478 8.64194 18.2858 8.52494C18.2158 8.39294 17.8928 8.43294 17.7588 8.51694C14.3348 10.6729 10.9108 12.8279 7.49178 14.9909C7.28178 15.1229 7.02478 15.1549 6.78878 15.0789C5.37878 14.6259 3.96078 14.1969 2.54778 13.7509C2.22278 13.6479 1.83678 13.5459 1.79978 13.1429C1.76078 12.7219 2.12178 12.5219 2.44778 12.3909C3.76178 11.8609 5.08478 11.3539 6.40578 10.8439C11.1578 9.01294 15.9098 7.18294 20.6618 5.35294C20.8208 5.29194 21.0328 5.25394 21.1988 5.22094C21.6968 5.12094 22.1448 5.37094 22.1938 5.87494C22.2308 6.24394 22.1658 6.65494 22.0888 7.01994C21.0988 11.7289 20.0958 16.4359 19.0938 21.1439C18.8238 22.4159 18.1698 22.6569 17.1168 21.8799C15.7598 20.8779 12.5558 18.5329 12.5558 18.5329Z" fill="white"/>
</symbol>


<symbol id="twitter-icon" width="24" height="26" viewBox="0 0 24 26" fill="none">
<path fill-rule="evenodd" clip-rule="evenodd" d="M21.422 6.91755C21.316 6.75155 21.124 6.65855 20.926 6.69155L18.923 6.98955C18.358 6.35755 16.628 4.74555 14.241 5.46755C12.174 6.10155 11.19 8.29955 11.131 9.97755C8.568 9.50755 6.176 8.24555 4.344 6.38555C4.213 6.25255 4.018 6.20355 3.838 6.25955C3.658 6.31555 3.526 6.46755 3.495 6.65255C2.58 12.0955 3.762 15.7285 7.212 18.0085C5.931 18.7145 4.462 19.0775 3.016 19.0255C2.818 19.0245 2.637 19.1295 2.551 19.3065C2.464 19.4825 2.49 19.6935 2.616 19.8455C4.098 21.6275 6.89 22.2385 9.115 22.2385C9.372 22.2385 9.621 22.2305 9.86 22.2155C13.1 22.0135 15.771 20.6755 17.584 18.3445C19.301 16.1375 20.132 13.1045 19.923 9.77955L19.917 9.73055L21.417 7.46155C21.526 7.29755 21.528 7.08355 21.422 6.91755Z" fill="white"/>
</symbol>


<symbol id="whatsapp-icon" width="24" height="26" viewBox="0 0 24 26" fill="none">
<path fill-rule="evenodd" clip-rule="evenodd" d="M14.5109 15.3217L14.4079 15.2507C14.1989 15.1047 13.9099 15.1237 13.7369 15.2957L13.5049 15.5297C13.2629 15.7757 12.8819 15.8227 12.5849 15.6447C11.4329 14.9507 10.8579 14.2807 10.1389 13.2117C9.94185 12.9177 9.97685 12.5247 10.2239 12.2707L10.4569 12.0307C10.6399 11.8437 10.6619 11.5647 10.5129 11.3477C10.3539 11.1257 10.1989 10.9027 10.0509 10.6897C9.96485 10.5677 9.82385 10.4877 9.66885 10.4747C9.65585 10.4737 9.64085 10.4727 9.62385 10.4727C9.52985 10.4727 9.38585 10.4987 9.26185 10.6237L9.13685 10.7497L9.13385 10.7527C8.07185 11.8177 9.21885 13.7237 10.6469 15.1527C12.0569 16.5577 13.9449 17.6857 15.0069 16.6217L15.1539 16.4837C15.2829 16.3527 15.2919 16.1777 15.2839 16.0877C15.2759 15.9967 15.2369 15.8277 15.0659 15.7087C14.8819 15.5767 14.7009 15.4527 14.5109 15.3217Z" fill="white"/>
<path fill-rule="evenodd" clip-rule="evenodd" d="M16.194 17.5602L16.046 17.7002C15.466 18.2772 14.765 18.5622 13.984 18.5622C12.676 18.5622 11.144 17.7662 9.585 16.2122C7.109 13.7362 6.528 11.2382 8.067 9.69319L8.194 9.56519C8.619 9.13919 9.211 8.92319 9.795 8.97819C10.393 9.03019 10.933 9.34019 11.278 9.83019C11.424 10.0412 11.576 10.2582 11.738 10.4842C12.242 11.2142 12.219 12.1652 11.717 12.8542C12.076 13.3432 12.41 13.7042 12.886 14.0492C13.578 13.5322 14.533 13.5102 15.26 14.0162L15.359 14.0832C15.558 14.2212 15.748 14.3512 15.93 14.4832C16.411 14.8172 16.722 15.3552 16.776 15.9512C16.83 16.5492 16.617 17.1352 16.194 17.5602ZM21.33 11.9492C20.618 8.16219 17.594 5.13919 13.807 4.42919C10.994 3.90019 8.133 4.63819 5.951 6.44819C3.757 8.26819 2.5 10.9332 2.5 13.7612C2.5 15.1832 2.824 16.5962 3.462 17.9572C3.514 18.0752 3.53 18.1942 3.506 18.3042C3.35 19.0132 3.023 20.4402 2.787 21.4602C2.688 21.8912 2.818 22.3312 3.132 22.6362C3.443 22.9382 3.883 23.0572 4.303 22.9462C5.254 22.7062 6.557 22.3872 7.375 22.1962C7.482 22.1712 7.6 22.1862 7.723 22.2472C9.042 22.9112 10.521 23.2612 12 23.2612C14.826 23.2612 17.49 22.0042 19.308 19.8132C21.121 17.6302 21.857 14.7632 21.33 11.9492Z" fill="white"/>
</symbol>

<symbol id="rate-hotel-icon" width="36" height="36" viewBox="0 0 36 36" fill="none">
<rect width="36" height="36" rx="8" fill="#F4F4F5"/>
<path d="M10.5 23.957H16.4313H10.5Z" fill="#71717A"/>
<path d="M10.5 23.957H16.4313" stroke="#71717A" stroke-linecap="round" stroke-linejoin="round"/>
<path d="M10.5 19.9863H14.1935H10.5Z" fill="#71717A"/>
<path d="M10.5 19.9863H14.1935" stroke="#71717A" stroke-linecap="round" stroke-linejoin="round"/>
<path d="M10.5 12.043H25.4993H10.5Z" fill="#71717A"/>
<path d="M10.5 12.043H25.4993" stroke="#71717A" stroke-linecap="round" stroke-linejoin="round"/>
<path d="M10.5 16.0137H16.3426H10.5Z" fill="#71717A"/>
<path d="M10.5 16.0137H16.3426" stroke="#71717A" stroke-linecap="round" stroke-linejoin="round"/>
<path d="M20.0914 22.6821L19.9703 22.3545C19.5138 21.1191 18.5412 20.145 17.3076 19.6879L16.9805 19.5667L17.3076 19.4454C18.5412 18.9883 19.5138 18.0143 19.9703 16.7788L20.0914 16.4512L20.2125 16.7788C20.6689 18.0143 21.6415 18.9883 22.8751 19.4454L23.2023 19.5667L22.8751 19.6879C21.6415 20.145 20.6689 21.1191 20.2125 22.3545L20.0914 22.6821Z" fill="#71717A" stroke="#71717A" stroke-linecap="round" stroke-linejoin="round"/>
<path d="M24.5196 23.9563C24.3766 23.4857 24.009 23.1174 23.5391 22.9742C24.009 22.831 24.3766 22.4627 24.5196 21.9922C24.6626 22.4627 25.0304 22.831 25.5002 22.9742C25.0304 23.1174 24.6626 23.4857 24.5196 23.9563Z" fill="#71717A" stroke="#71717A" stroke-linecap="round" stroke-linejoin="round"/>
</symbol>


<symbol id="star-hotel-icon" width="37" height="36" viewBox="0 0 37 36" fill="none">
<rect x="0.333008" width="36" height="36" rx="8" fill="#F4F4F5"/>
<path d="M22.0029 25.5049C22.2243 25.6162 22.4789 25.6572 22.7285 25.6191L22.7314 25.6182C23.3699 25.5181 23.7712 24.955 23.6797 24.3877L23.0947 21.1709C23.0407 20.8783 23.1444 20.5851 23.3594 20.3887L25.8262 18.1143C26.0087 17.9448 26.123 17.7238 26.1553 17.4902C26.2323 16.9264 25.8206 16.3757 25.1846 16.2939L25.1797 16.293L21.7754 15.8223C21.7744 15.8221 21.7725 15.8224 21.7715 15.8223V15.8213C21.4889 15.7822 21.2339 15.6129 21.0977 15.3535L21.0986 15.3525L21.0967 15.3506V15.3516L19.5742 12.4307V12.4297L19.5732 12.4287C19.4658 12.2298 19.2956 12.0648 19.082 11.959L19.0811 11.958C18.5002 11.6696 17.798 11.8951 17.5098 12.4287L15.9844 15.3516L15.9834 15.3506C15.9828 15.3517 15.9819 15.3526 15.9814 15.3535L15.9824 15.3545C15.8448 15.6144 15.5889 15.7839 15.3057 15.8223L15.3066 15.8232L11.8994 16.2939L11.8955 16.2949C11.6373 16.3284 11.4005 16.4433 11.2246 16.6182L11.2256 16.6191C10.8013 17.0422 10.8134 17.7067 11.2539 18.1152L11.2549 18.1162L13.7227 20.3896L13.7979 20.4678C13.9605 20.6595 14.0337 20.9158 13.9873 21.1709L13.4033 24.3809L13.4043 24.3818C13.3753 24.5526 13.39 24.727 13.4473 24.8906L13.5195 25.0508L13.5781 25.1465C13.8968 25.6028 14.5442 25.7762 15.0811 25.5039L15.084 25.5029L18.1279 23.9883L18.1338 23.9854C18.1421 23.9814 18.1535 23.976 18.167 23.9707C18.3851 23.8747 18.6321 23.8653 18.8555 23.9453L18.9551 23.9883L21.9951 25.501L21.998 25.502M22.0029 25.5049H22.0039M22.0029 25.5049H22.0039M22.0029 25.5049C22.0019 25.5044 22.0007 25.5043 22 25.5039L21.998 25.502M22.0039 25.5049L21.998 25.502M22.0039 25.5049L21.998 25.502M25.6357 17.9844C25.6349 17.9852 25.6342 17.987 25.6328 17.9883C25.6322 17.9888 25.6308 17.9904 25.6299 17.9912C25.6286 17.9923 25.6249 17.9954 25.623 17.9971C25.6209 17.9989 25.6159 18.0022 25.6113 18.0059C25.6121 18.0052 25.6126 18.0044 25.6133 18.0039L23.1797 20.25L23.1719 20.2588C22.9027 20.5052 22.7852 20.8576 22.8477 21.1982V21.1992L23.4297 24.4033L23.4316 24.4131C23.5113 24.9116 23.1562 25.3481 22.6846 25.4219L22.6816 25.4229C22.4935 25.4512 22.3002 25.4197 22.1299 25.333V25.332L19.084 23.8174L18.9541 23.7627C18.6441 23.6521 18.2959 23.6706 17.998 23.8184L17.9971 23.8174L14.9521 25.334H14.9512C14.5264 25.5505 13.9881 25.4035 13.749 24.9736L13.7471 24.9707C13.6542 24.8007 13.6194 24.6056 13.6504 24.4141L13.6523 24.4043L14.2354 21.1982M25.6357 17.9844L25.6367 17.9854L25.6377 17.9844M25.6357 17.9844H25.6377M25.6357 17.9844L25.5098 17.8486L25.6377 17.9844M25.6377 17.9844C25.6394 17.9828 25.6399 17.9801 25.6416 17.9785L25.6426 17.9795H25.6436L25.6426 17.9775C25.6558 17.965 25.6673 17.9508 25.6797 17.9375M25.6797 17.9375C25.6779 17.9397 25.6762 17.9416 25.6748 17.9434M25.6797 17.9375C25.6833 17.9336 25.6869 17.9297 25.6904 17.9258M25.6797 17.9375C25.6831 17.9332 25.6862 17.9275 25.6904 17.9219C25.6899 17.9232 25.691 17.9248 25.6904 17.9258M25.6748 17.9434C25.6796 17.9378 25.6862 17.932 25.6904 17.9268V17.9258M25.6748 17.9434C25.6727 17.946 25.672 17.9489 25.6709 17.9502C25.6674 17.9541 25.6623 17.9606 25.6602 17.9629C25.6619 17.961 25.6634 17.9578 25.665 17.9561C25.667 17.9539 25.6703 17.9487 25.6748 17.9434ZM25.6904 17.9258C25.8039 17.7995 25.8831 17.6424 25.9072 17.4697V17.4688C25.9745 16.9724 25.6099 16.55 25.1436 16.4912H25.1426L21.7588 16.0234L21.749 16.0215M21.749 16.0215C21.7468 16.0211 21.7445 16.0209 21.7422 16.0205C21.7406 16.0203 21.739 16.0198 21.7373 16.0195M21.749 16.0215L21.7373 16.0195M21.749 16.0215C21.75 16.0217 21.751 16.0223 21.752 16.0225L21.7363 16.0205L21.7324 16.0195C21.7341 16.0197 21.7358 16.0193 21.7373 16.0195M21.7373 16.0195H21.7334C21.4004 15.9744 21.1127 15.7959 20.9355 15.541L20.8662 15.4277L19.3457 12.5098L19.3398 12.5L19.2646 12.3848C19.2087 12.3122 19.1425 12.249 19.0684 12.1973L18.9521 12.1289L18.9512 12.1279H18.9502C18.5201 11.9152 17.9814 12.0671 17.7432 12.5L17.7373 12.5098L16.2148 15.4277L16.2139 15.4287C16.0488 15.742 15.7292 15.9669 15.3506 16.0195L15.3438 16.0205L11.9365 16.4922C11.7428 16.5168 11.56 16.6041 11.4199 16.7432L11.4189 16.7441C11.0712 17.0915 11.0824 17.6504 11.4414 17.9844L11.4434 17.9854V17.9863L13.8896 20.2402L13.8965 20.2471L13.9102 20.2598C14.1789 20.5065 14.2972 20.8583 14.2354 21.1982M14.2354 21.1982C14.2361 21.1939 14.2365 21.1896 14.2373 21.1855C14.2378 21.1829 14.2384 21.1796 14.2393 21.1758L14.2354 21.1982ZM17.9229 24.1777C17.9266 24.1715 17.9299 24.1662 17.9326 24.1621L17.9336 24.1592C17.9298 24.1649 17.9267 24.1714 17.9229 24.1777ZM17.9229 24.1777C17.915 24.1907 17.9052 24.208 17.8955 24.2295C17.9042 24.2104 17.9135 24.1932 17.9229 24.1777ZM11.2842 17.5771C11.2869 17.5439 11.2936 17.5072 11.3057 17.4688C11.2993 17.4891 11.2945 17.5087 11.291 17.5273L11.2842 17.5771ZM11.2842 17.5771C11.284 17.5797 11.2834 17.5825 11.2832 17.585C11.2825 17.5957 11.2842 17.6062 11.2842 17.6162C11.2842 17.6037 11.2831 17.5907 11.2842 17.5771ZM17.9043 24.6572L17.9023 24.6582C17.8919 24.6372 17.8839 24.6162 17.877 24.5957C17.8844 24.6179 17.8947 24.6378 17.9043 24.6572ZM18.8477 24.4336C18.8477 24.4537 18.8488 24.4729 18.8467 24.4912C18.8486 24.4735 18.8477 24.4543 18.8477 24.4336ZM17.8682 24.3037C17.8626 24.3242 17.8587 24.3469 17.8555 24.3711C17.8583 24.3488 17.8613 24.3291 17.8652 24.3135C17.8661 24.3102 17.8673 24.3069 17.8682 24.3037ZM18.8252 24.2783C18.8316 24.2976 18.8331 24.3174 18.8369 24.3359C18.833 24.3163 18.8302 24.2959 18.8232 24.2754C18.8236 24.2764 18.8248 24.2773 18.8252 24.2783ZM18.7715 24.168C18.7758 24.1747 18.7801 24.1814 18.7842 24.1885C18.7802 24.1816 18.7759 24.1749 18.7715 24.168ZM18.7178 24.0967C18.7209 24.1 18.7235 24.1039 18.7266 24.1074C18.7235 24.1039 18.7209 24.1001 18.7178 24.0967ZM18.5977 24.001C18.6174 24.0122 18.6388 24.0271 18.6611 24.0449C18.6348 24.024 18.608 24.0076 18.582 23.9941C18.5869 23.9967 18.5927 23.9982 18.5977 24.001ZM18.4951 23.957C18.5058 23.9602 18.5164 23.9661 18.5283 23.9707C18.5166 23.9662 18.506 23.9603 18.4951 23.957ZM18.4336 23.9424C18.4402 23.9435 18.4479 23.9463 18.457 23.9482C18.4462 23.9458 18.4365 23.9428 18.4277 23.9414C18.4296 23.9417 18.4317 23.9421 18.4336 23.9424ZM18.3994 23.9395C18.382 23.9377 18.3657 23.9375 18.3506 23.9375V23.9355L18.3994 23.9395ZM14.582 21.7656C14.6006 21.7713 14.6196 21.7721 14.6377 21.7754L14.6367 21.7793C14.5819 21.7696 14.534 21.7511 14.4922 21.7285C14.519 21.7428 14.5488 21.7556 14.582 21.7656ZM22.5537 21.748C22.5472 21.7509 22.54 21.7523 22.5332 21.7549C22.54 21.7523 22.5472 21.7509 22.5537 21.748ZM14.4736 21.7168C14.4599 21.7086 14.4468 21.7004 14.4346 21.6914C14.4467 21.7002 14.4597 21.7086 14.4736 21.7168ZM22.7021 21.6494C22.7005 21.651 22.698 21.6517 22.6963 21.6533C22.7071 21.6432 22.7156 21.632 22.7246 21.6221C22.717 21.6305 22.7109 21.641 22.7021 21.6494ZM22.7773 21.5547C22.7701 21.5662 22.7616 21.5782 22.752 21.5908C22.762 21.5777 22.7705 21.5656 22.7773 21.5547ZM14.3105 21.5635C14.3076 21.559 14.3044 21.555 14.3018 21.5508C14.2992 21.5466 14.2973 21.5422 14.2949 21.5381C14.2998 21.5464 14.3049 21.5549 14.3105 21.5635ZM22.7988 21.5205C22.7951 21.5277 22.7891 21.5346 22.7842 21.543C22.794 21.5263 22.8013 21.5107 22.8076 21.4971C22.8043 21.5043 22.8028 21.5128 22.7988 21.5205ZM22.834 21.4346C22.8324 21.4398 22.8283 21.4449 22.8262 21.4512C22.8331 21.4312 22.8388 21.4143 22.8418 21.4014C22.8395 21.4113 22.8376 21.4227 22.834 21.4346ZM14.2539 21.4492C14.2487 21.4341 14.245 21.4206 14.2422 21.4092C14.2448 21.4195 14.2484 21.4332 14.2539 21.4492ZM14.2363 21.3848C14.236 21.383 14.2356 21.3813 14.2354 21.3799C14.2348 21.3767 14.2349 21.3732 14.2344 21.3701C14.2352 21.3747 14.2353 21.3797 14.2363 21.3848ZM22.7979 21.0557C22.8 21.0598 22.8018 21.0645 22.8037 21.0684C22.8011 21.0631 22.7981 21.0576 22.7949 21.0518C22.7957 21.0533 22.7972 21.0543 22.7979 21.0557ZM22.7354 20.9629C22.7384 20.9664 22.7403 20.9711 22.7432 20.9746C22.7382 20.9685 22.7327 20.962 22.7266 20.9551C22.7293 20.9581 22.733 20.9601 22.7354 20.9629ZM22.6533 20.8867C22.6651 20.8954 22.6739 20.9065 22.6836 20.915C22.6721 20.905 22.6605 20.8925 22.6455 20.8818C22.648 20.8836 22.651 20.885 22.6533 20.8867ZM22.5127 20.8164C22.5486 20.8283 22.5795 20.8424 22.6055 20.8574C22.5802 20.8428 22.5493 20.8286 22.5127 20.8164ZM22.4814 20.8047C22.4833 20.8052 22.4855 20.8061 22.4873 20.8066C22.4727 20.8026 22.4573 20.7996 22.4414 20.7969C22.4549 20.7992 22.4684 20.8013 22.4814 20.8047ZM22.3926 20.791C22.4047 20.7919 22.4169 20.7922 22.4287 20.7939C22.417 20.7922 22.4049 20.7919 22.3926 20.791ZM11.7334 18.1152C11.7307 18.115 11.728 18.1155 11.7256 18.1152C11.7011 18.1124 11.6799 18.1081 11.665 18.1045C11.6617 18.1037 11.6585 18.1024 11.6553 18.1016C11.6742 18.1065 11.7009 18.112 11.7334 18.1152ZM11.9189 18.0977C11.8869 18.1068 11.8584 18.1118 11.835 18.1143C11.8606 18.1115 11.8887 18.1063 11.9189 18.0977ZM11.6357 18.0947C11.6214 18.0903 11.6094 18.088 11.6016 18.085C11.5877 18.0796 11.576 18.0739 11.5684 18.0703L11.5674 18.0693C11.5806 18.0756 11.6046 18.0851 11.6357 18.0947ZM12.0527 18.0381C12.0438 18.0439 12.0344 18.0487 12.0254 18.0537C12.0344 18.0487 12.0437 18.0439 12.0527 18.0381ZM25.5645 18.041C25.5582 18.0434 25.551 18.0434 25.5439 18.0449C25.5712 18.0311 25.5921 18.0198 25.6016 18.0137C25.5908 18.0217 25.5766 18.0329 25.5645 18.041ZM12.1172 17.9883C12.1043 17.9999 12.0905 18.0097 12.0771 18.0195C12.0907 18.0095 12.1045 17.9998 12.1172 17.9883ZM25.6504 17.9717C25.6496 17.9724 25.6489 17.9732 25.6484 17.9736L25.6504 17.9727L25.6553 17.9678C25.6533 17.9698 25.6512 17.9709 25.6504 17.9717ZM11.3809 17.916C11.3758 17.9092 11.3683 17.8993 11.3604 17.8867C11.3586 17.884 11.3569 17.8799 11.3545 17.876C11.3646 17.8928 11.3738 17.9065 11.3809 17.916ZM11.2959 17.7344C11.3033 17.7655 11.3123 17.7913 11.3203 17.8105C11.3131 17.7933 11.3043 17.7686 11.2969 17.7383C11.2963 17.7361 11.2955 17.7338 11.2949 17.7314L11.2959 17.7344ZM11.2881 17.6885C11.2873 17.6831 11.2848 17.6777 11.2842 17.6719C11.2848 17.6777 11.2873 17.6831 11.2881 17.6885ZM25.3926 17.2334C25.4807 17.302 25.5438 17.3851 25.5898 17.4697C25.5381 17.4048 25.4749 17.351 25.4102 17.3066C25.4068 17.2813 25.401 17.257 25.3926 17.2334ZM11.373 17.332C11.3755 17.3286 11.3773 17.3247 11.3799 17.3213C11.3839 17.3158 11.3893 17.3109 11.3936 17.3057C11.3867 17.3142 11.3795 17.3228 11.373 17.332ZM11.4326 17.2627C11.4366 17.2588 11.4403 17.2547 11.4443 17.251C11.4403 17.2547 11.4366 17.2588 11.4326 17.2627ZM11.4902 17.2139C11.4944 17.2109 11.4978 17.2069 11.502 17.2041C11.5044 17.2024 11.5073 17.2008 11.5098 17.1992C11.503 17.2036 11.4969 17.2091 11.4902 17.2139ZM11.5811 17.1611C11.5992 17.1532 11.6169 17.1469 11.6338 17.1416C11.637 17.1406 11.6404 17.1396 11.6436 17.1387C11.6238 17.1444 11.6028 17.1516 11.5811 17.1611ZM15.335 16.0215H15.3369C15.3379 16.0213 15.3388 16.0207 15.3398 16.0205L15.335 16.0215ZM21.7363 15.5791C21.7047 15.5927 21.6742 15.6031 21.6445 15.6094C21.6777 15.6023 21.7079 15.5912 21.7363 15.5791ZM21.4287 15.6064C21.4108 15.6024 21.3958 15.5993 21.3848 15.5957C21.3837 15.5954 21.3829 15.5941 21.3818 15.5938C21.3962 15.5986 21.4119 15.6025 21.4287 15.6064ZM21.3135 15.5645C21.2854 15.5501 21.264 15.5381 21.2529 15.5303C21.2516 15.5293 21.2503 15.5283 21.249 15.5273C21.2668 15.5401 21.2889 15.5518 21.3135 15.5645ZM21.8115 15.5391C21.8016 15.5454 21.792 15.5527 21.7812 15.5586C21.7767 15.5611 21.7711 15.5621 21.7666 15.5645C21.7825 15.5563 21.7972 15.5474 21.8115 15.5381V15.5391ZM21.8135 15.5371L21.8125 15.5381V15.5371L21.8135 15.5361V15.5371ZM21.1865 15.4727C21.1824 15.4685 21.1787 15.4659 21.1768 15.4639L21.1777 15.4619C21.1808 15.4652 21.1832 15.4693 21.1865 15.4727ZM21.9834 15.3457C21.9773 15.3579 21.9714 15.3704 21.9639 15.3828C21.9715 15.3705 21.9764 15.3576 21.9824 15.3457H21.9834ZM21.043 15.1211H21.041C21.041 15.1085 21.0426 15.0903 21.0449 15.0684C21.0429 15.0872 21.043 15.1048 21.043 15.1211ZM21.0479 15.0381C21.0483 15.0355 21.0483 15.0329 21.0488 15.0303C21.0508 15.0194 21.0549 15.0053 21.0596 14.9883C21.0544 15.007 21.0503 15.0237 21.0479 15.0381ZM21.0664 14.9619C21.07 14.9512 21.0761 14.9406 21.0811 14.9287C21.0762 14.9404 21.0701 14.951 21.0664 14.9619ZM21.1172 14.8545C21.1184 14.8525 21.1198 14.8506 21.1211 14.8486C21.1245 14.8434 21.129 14.8383 21.1328 14.833C21.1277 14.8404 21.1218 14.8471 21.1172 14.8545ZM22.8555 21.3145C22.8548 21.3281 22.8528 21.351 22.8477 21.3789C22.8474 21.3805 22.846 21.3821 22.8457 21.3838C22.8516 21.3532 22.8539 21.3291 22.8545 21.3193C22.8553 21.3063 22.8555 21.2956 22.8555 21.2891V21.3145ZM25.6455 17.9775L25.6465 17.9756C25.6456 17.9765 25.6448 17.9773 25.6445 17.9775V17.9785L25.6455 17.9775ZM21.9502 15.4053C21.9382 15.4228 21.9247 15.44 21.9092 15.457C21.9249 15.4399 21.9383 15.4224 21.9502 15.4053Z" fill="#71717A" stroke="#71717A"/>
</symbol>


<symbol id="location-hotel-icon" width="21" height="20" viewBox="0 0 21 20" fill="none">
<path d="M7.73145 7.71387C7.73145 7.94478 7.67616 8.17239 7.56934 8.37695L6.2334 10.9307V10.9316C6.14534 11.1003 6.09863 11.2878 6.09863 11.4785C6.09869 12.1301 6.62726 12.6572 7.2793 12.6572H13.8008C14.4527 12.657 14.9804 12.1299 14.9805 11.4785C14.9805 11.2879 14.9347 11.1003 14.8467 10.9316L14.8457 10.9307L13.5107 8.37695C13.4041 8.17262 13.3467 7.94501 13.3467 7.71387V5.87402H7.73145V7.71387ZM7.20996 2.625C6.59639 2.62522 6.09863 3.12321 6.09863 3.73633V4.51367C6.09875 5.12671 6.59647 5.62379 7.20996 5.62402H13.8682L13.8691 5.12402V5.62402C14.4821 5.62381 14.9804 5.1272 14.9805 4.51367V3.73633C14.9805 3.12281 14.4826 2.62501 13.8691 2.625H7.20996ZM7.48145 5.91797L7.04297 5.86426C6.37072 5.78185 5.84874 5.20818 5.84863 4.51367V3.73633C5.84863 2.98482 6.45864 2.37522 7.20996 2.375H13.8691C14.6207 2.37501 15.2305 2.98476 15.2305 3.73633V4.51367C15.2304 5.20836 14.7085 5.78215 14.0361 5.86426L13.5967 5.91797V7.71387C13.5967 7.90407 13.6438 8.09232 13.7324 8.26172L15.0674 10.8145V10.8154C15.1743 11.02 15.2305 11.2477 15.2305 11.4785C15.2304 12.2683 14.5904 12.907 13.8008 12.9072H10.6641V17.5C10.6641 17.569 10.6081 17.625 10.5391 17.625C10.4702 17.6248 10.4141 17.5689 10.4141 17.5V12.9072H7.2793C6.48948 12.9072 5.84869 12.2685 5.84863 11.4785C5.84863 11.2476 5.90485 11.0201 6.01172 10.8154L7.34766 8.26172V8.26074C7.43566 8.09208 7.48145 7.90446 7.48145 7.71387V5.91797Z" fill="#2F2D87" stroke="#2F2D87"/>
</symbol>


<!-- search engine -->
<!-- #engine-departureflight-icon -->
<symbol id="engine-departureflight-icon" width="48" height="48" viewBox="0 0 48 48" fill="none" >
<path d="M17.4221 27.2094H17.4281C20.7661 27.2094 24.709 27.1964 28.636 27.1254C31.671 27.0714 33.49 25.1954 33.5 22.1064C33.5 21.8754 33.493 21.0064 33.491 20.7154C33.485 20.5227 33.405 20.3396 33.2677 20.2042C33.1304 20.0688 32.9462 19.9914 32.7534 19.988C32.5606 19.9847 32.3738 20.0557 32.2319 20.1862C32.09 20.3168 32.0037 20.497 31.991 20.6894C31.991 20.8664 31.996 21.2024 31.998 21.5094H30.038C29.313 21.5094 28.584 21.5094 27.97 21.5094L27.925 16.0274C27.9241 15.9258 27.9025 15.8253 27.8617 15.7322C27.8208 15.6391 27.7614 15.5553 27.6872 15.4858C27.6129 15.4164 27.5253 15.3627 27.4297 15.3281C27.3341 15.2935 27.2325 15.2786 27.131 15.2844C26.922 15.2964 26.717 15.3034 26.514 15.3104C26.0398 15.316 25.5664 15.3524 25.0969 15.4194C24.642 15.5124 24.2176 15.7176 23.8622 16.0164C23.5068 16.3152 23.2316 16.6982 23.062 17.1304C22.3531 18.5924 21.6479 20.0544 20.9769 21.5304C21.0009 21.5684 20.977 21.5774 20.901 21.5734C19.628 21.5524 18.567 21.5434 17.458 21.6024C16.3675 21.6179 15.3263 22.0602 14.5581 22.8344C14.3391 23.0978 14.1784 23.4045 14.0862 23.7343C13.994 24.0641 13.9725 24.4097 14.0231 24.7484C14.24 26.4404 15.9361 27.2094 17.4221 27.2094ZM31.922 23.0094C31.633 24.6914 30.5 25.5914 28.605 25.6254C24.689 25.6964 20.7551 25.7074 17.4221 25.7094C16.7111 25.7094 15.622 25.4034 15.51 24.5574C15.4858 24.4234 15.4911 24.2856 15.5257 24.1538C15.5602 24.0221 15.6232 23.8994 15.71 23.7944C16.2094 23.3391 16.8622 23.089 17.5379 23.0944C18.5989 23.0374 19.6381 23.0464 20.876 23.0674C21.1863 23.0892 21.4956 23.0117 21.7589 22.8462C22.0223 22.6806 22.2262 22.4355 22.3411 22.1464C23.008 20.6784 23.707 19.2274 24.412 17.7784C24.754 17.0724 25.089 16.9334 25.342 16.8914C25.7026 16.8416 26.066 16.8142 26.43 16.8094L26.475 22.2634C26.4766 22.4613 26.5563 22.6505 26.6968 22.7899C26.8373 22.9292 27.0271 23.0074 27.225 23.0074C27.935 23.0074 28.987 23.0074 30.025 23.0074C30.697 23.0094 31.35 23.0094 31.926 23.0094H31.922Z" fill="#949494"/>
<path d="M16.9978 32.7168H30.5078C30.7067 32.7168 30.8975 32.6378 31.0381 32.4971C31.1788 32.3565 31.2578 32.1657 31.2578 31.9668C31.2578 31.7679 31.1788 31.5771 31.0381 31.4365C30.8975 31.2958 30.7067 31.2168 30.5078 31.2168H16.9978C16.7989 31.2168 16.6082 31.2958 16.4675 31.4365C16.3269 31.5771 16.2478 31.7679 16.2478 31.9668C16.2478 32.1657 16.3269 32.3565 16.4675 32.4971C16.6082 32.6378 16.7989 32.7168 16.9978 32.7168Z" fill="#949494"/>
</symbol>

<!-- engine-exchange-icon -->
<symbol id="engine-exchange-icon" width="48" height="48" viewBox="0 0 48 48" fill="none">
<path d="M32.1647 19.1602L18.5469 19.1602" stroke="white" stroke-width="1.5" stroke-linecap="round" stroke-linejoin="round"/>
<path d="M28.0664 15.0827L32.1631 19.1605L28.0664 23.2383" stroke="white" stroke-width="1.5" stroke-linecap="round" stroke-linejoin="round"/>
<path d="M15.832 29.0898L29.4498 29.0898" stroke="white" stroke-width="1.5" stroke-linecap="round" stroke-linejoin="round"/>
<path d="M19.9287 33.168L15.832 29.0902L19.9287 25.0124" stroke="white" stroke-width="1.5" stroke-linecap="round" stroke-linejoin="round"/>
</symbol>


<!-- engine-destinationflight-icon -->
<symbol id="engine-destinationflight-icon" width="48" height="48" viewBox="0 0 48 48" fill="none">
<path fill-rule="evenodd" clip-rule="evenodd" d="M21.0117 23.3054C21.0117 21.5174 22.4607 20.0684 24.2487 20.0684C26.036 20.0684 27.4848 21.5176 27.4848 23.3054C27.4848 25.0924 26.0358 26.5414 24.2487 26.5414C22.4609 26.5414 21.0117 25.0926 21.0117 23.3054ZM24.2487 21.5684C23.2891 21.5684 22.5117 22.3458 22.5117 23.3054C22.5117 24.2638 23.2889 25.0414 24.2487 25.0414C25.2073 25.0414 25.9848 24.264 25.9848 23.3054C25.9848 22.3456 25.2072 21.5684 24.2487 21.5684Z" fill="#949494"/>
<path fill-rule="evenodd" clip-rule="evenodd" d="M24.2518 16C20.5719 16 17.426 19.3277 17.5422 23.074C17.625 25.7455 19.3266 28.2359 21.1326 30.1225C22.0228 31.0523 22.9097 31.8057 23.5746 32.3266C23.8444 32.538 24.0767 32.7104 24.2566 32.84C24.4356 32.7137 24.6663 32.5458 24.934 32.3397C25.598 31.8286 26.4839 31.0872 27.373 30.1658C29.1748 28.2986 30.8787 25.8078 30.9622 23.0743C31.0767 19.3276 27.9314 16 24.2518 16ZM24.2518 33.7499C23.8424 34.3784 23.8422 34.3782 23.842 34.3781L23.8397 34.3766L23.8344 34.3731L23.8159 34.3609C23.8002 34.3505 23.7778 34.3355 23.7492 34.316C23.6918 34.2772 23.6094 34.2205 23.5053 34.1468C23.2973 33.9995 23.0026 33.784 22.6495 33.5074C21.9444 32.9549 21.0008 32.1539 20.0491 31.1598C18.1714 29.1983 16.1434 26.3624 16.0429 23.1204C15.9016 18.5623 19.6913 14.5 24.2518 14.5C28.8123 14.5 32.6007 18.5623 32.4615 23.1201C32.3607 26.4213 30.3345 29.2569 28.4524 31.2074C27.4995 32.1948 26.5549 32.985 25.8489 33.5284C25.4954 33.8005 25.2002 34.0119 24.9918 34.1562C24.8876 34.2284 24.8049 34.284 24.7474 34.322C24.7187 34.341 24.6962 34.3557 24.6804 34.3659L24.6618 34.3779L24.6564 34.3814L24.6547 34.3825C24.6545 34.3826 24.6537 34.3831 24.2518 33.7499ZM24.2518 33.7499L24.6537 34.3831L24.2465 34.6416L23.842 34.3781L24.2518 33.7499Z" fill="#949494"/>
</symbol>

<!-- engine-departurehotel-icon -->
<symbol id="engine-departurehotel-icon" width="48" height="48" viewBox="0 0 48 48" fill="none">
<path fill-rule="evenodd" clip-rule="evenodd" d="M21.0117 23.3054C21.0117 21.5174 22.4607 20.0684 24.2487 20.0684C26.036 20.0684 27.4848 21.5176 27.4848 23.3054C27.4848 25.0924 26.0358 26.5414 24.2487 26.5414C22.4609 26.5414 21.0117 25.0926 21.0117 23.3054ZM24.2487 21.5684C23.2891 21.5684 22.5117 22.3458 22.5117 23.3054C22.5117 24.2638 23.2889 25.0414 24.2487 25.0414C25.2073 25.0414 25.9848 24.264 25.9848 23.3054C25.9848 22.3456 25.2072 21.5684 24.2487 21.5684Z" fill="#949494"/>
<path fill-rule="evenodd" clip-rule="evenodd" d="M24.2518 16C20.5719 16 17.426 19.3277 17.5422 23.074C17.625 25.7455 19.3266 28.2359 21.1326 30.1225C22.0228 31.0523 22.9097 31.8057 23.5746 32.3266C23.8444 32.538 24.0767 32.7104 24.2566 32.84C24.4356 32.7137 24.6663 32.5458 24.934 32.3397C25.598 31.8286 26.4839 31.0872 27.373 30.1658C29.1748 28.2986 30.8787 25.8078 30.9622 23.0743C31.0767 19.3276 27.9314 16 24.2518 16ZM24.2518 33.7499C23.8424 34.3784 23.8422 34.3782 23.842 34.3781L23.8397 34.3766L23.8344 34.3731L23.8159 34.3609C23.8002 34.3505 23.7778 34.3355 23.7492 34.316C23.6918 34.2772 23.6094 34.2205 23.5053 34.1468C23.2973 33.9995 23.0026 33.784 22.6495 33.5074C21.9444 32.9549 21.0008 32.1539 20.0491 31.1598C18.1714 29.1983 16.1434 26.3624 16.0429 23.1204C15.9016 18.5623 19.6913 14.5 24.2518 14.5C28.8123 14.5 32.6007 18.5623 32.4615 23.1201C32.3607 26.4213 30.3345 29.2569 28.4524 31.2074C27.4995 32.1948 26.5549 32.985 25.8489 33.5284C25.4954 33.8005 25.2002 34.0119 24.9918 34.1562C24.8876 34.2284 24.8049 34.284 24.7474 34.322C24.7187 34.341 24.6962 34.3557 24.6804 34.3659L24.6618 34.3779L24.6564 34.3814L24.6547 34.3825C24.6545 34.3826 24.6537 34.3831 24.2518 33.7499ZM24.2518 33.7499L24.6537 34.3831L24.2465 34.6416L23.842 34.3781L24.2518 33.7499Z" fill="#949494"/>
</symbol>



<!-- engine-departureflighthotel-icon -->
<symbol id="engine-departureflighthotel-icon" width="48" height="48" viewBox="0 0 48 48" fill="none" >
<path d="M17.4221 27.2094H17.4281C20.7661 27.2094 24.709 27.1964 28.636 27.1254C31.671 27.0714 33.49 25.1954 33.5 22.1064C33.5 21.8754 33.493 21.0064 33.491 20.7154C33.485 20.5227 33.405 20.3396 33.2677 20.2042C33.1304 20.0688 32.9462 19.9914 32.7534 19.988C32.5606 19.9847 32.3738 20.0557 32.2319 20.1862C32.09 20.3168 32.0037 20.497 31.991 20.6894C31.991 20.8664 31.996 21.2024 31.998 21.5094H30.038C29.313 21.5094 28.584 21.5094 27.97 21.5094L27.925 16.0274C27.9241 15.9258 27.9025 15.8253 27.8617 15.7322C27.8208 15.6391 27.7614 15.5553 27.6872 15.4858C27.6129 15.4164 27.5253 15.3627 27.4297 15.3281C27.3341 15.2935 27.2325 15.2786 27.131 15.2844C26.922 15.2964 26.717 15.3034 26.514 15.3104C26.0398 15.316 25.5664 15.3524 25.0969 15.4194C24.642 15.5124 24.2176 15.7176 23.8622 16.0164C23.5068 16.3152 23.2316 16.6982 23.062 17.1304C22.3531 18.5924 21.6479 20.0544 20.9769 21.5304C21.0009 21.5684 20.977 21.5774 20.901 21.5734C19.628 21.5524 18.567 21.5434 17.458 21.6024C16.3675 21.6179 15.3263 22.0602 14.5581 22.8344C14.3391 23.0978 14.1784 23.4045 14.0862 23.7343C13.994 24.0641 13.9725 24.4097 14.0231 24.7484C14.24 26.4404 15.9361 27.2094 17.4221 27.2094ZM31.922 23.0094C31.633 24.6914 30.5 25.5914 28.605 25.6254C24.689 25.6964 20.7551 25.7074 17.4221 25.7094C16.7111 25.7094 15.622 25.4034 15.51 24.5574C15.4858 24.4234 15.4911 24.2856 15.5257 24.1538C15.5602 24.0221 15.6232 23.8994 15.71 23.7944C16.2094 23.3391 16.8622 23.089 17.5379 23.0944C18.5989 23.0374 19.6381 23.0464 20.876 23.0674C21.1863 23.0892 21.4956 23.0117 21.7589 22.8462C22.0223 22.6806 22.2262 22.4355 22.3411 22.1464C23.008 20.6784 23.707 19.2274 24.412 17.7784C24.754 17.0724 25.089 16.9334 25.342 16.8914C25.7026 16.8416 26.066 16.8142 26.43 16.8094L26.475 22.2634C26.4766 22.4613 26.5563 22.6505 26.6968 22.7899C26.8373 22.9292 27.0271 23.0074 27.225 23.0074C27.935 23.0074 28.987 23.0074 30.025 23.0074C30.697 23.0094 31.35 23.0094 31.926 23.0094H31.922Z" fill="#949494"/>
<path d="M16.9978 32.7168H30.5078C30.7067 32.7168 30.8975 32.6378 31.0381 32.4971C31.1788 32.3565 31.2578 32.1657 31.2578 31.9668C31.2578 31.7679 31.1788 31.5771 31.0381 31.4365C30.8975 31.2958 30.7067 31.2168 30.5078 31.2168H16.9978C16.7989 31.2168 16.6082 31.2958 16.4675 31.4365C16.3269 31.5771 16.2478 31.7679 16.2478 31.9668C16.2478 32.1657 16.3269 32.3565 16.4675 32.4971C16.6082 32.6378 16.7989 32.7168 16.9978 32.7168Z" fill="#949494"/>
</symbol>

<!-- engine-destinationflighthotel-icon -->
<symbol id="engine-destinationflighthotel-icon" width="48" height="48" viewBox="0 0 48 48" fill="none">
<path fill-rule="evenodd" clip-rule="evenodd" d="M21.0117 23.3054C21.0117 21.5174 22.4607 20.0684 24.2487 20.0684C26.036 20.0684 27.4848 21.5176 27.4848 23.3054C27.4848 25.0924 26.0358 26.5414 24.2487 26.5414C22.4609 26.5414 21.0117 25.0926 21.0117 23.3054ZM24.2487 21.5684C23.2891 21.5684 22.5117 22.3458 22.5117 23.3054C22.5117 24.2638 23.2889 25.0414 24.2487 25.0414C25.2073 25.0414 25.9848 24.264 25.9848 23.3054C25.9848 22.3456 25.2072 21.5684 24.2487 21.5684Z" fill="#949494"/>
<path fill-rule="evenodd" clip-rule="evenodd" d="M24.2518 16C20.5719 16 17.426 19.3277 17.5422 23.074C17.625 25.7455 19.3266 28.2359 21.1326 30.1225C22.0228 31.0523 22.9097 31.8057 23.5746 32.3266C23.8444 32.538 24.0767 32.7104 24.2566 32.84C24.4356 32.7137 24.6663 32.5458 24.934 32.3397C25.598 31.8286 26.4839 31.0872 27.373 30.1658C29.1748 28.2986 30.8787 25.8078 30.9622 23.0743C31.0767 19.3276 27.9314 16 24.2518 16ZM24.2518 33.7499C23.8424 34.3784 23.8422 34.3782 23.842 34.3781L23.8397 34.3766L23.8344 34.3731L23.8159 34.3609C23.8002 34.3505 23.7778 34.3355 23.7492 34.316C23.6918 34.2772 23.6094 34.2205 23.5053 34.1468C23.2973 33.9995 23.0026 33.784 22.6495 33.5074C21.9444 32.9549 21.0008 32.1539 20.0491 31.1598C18.1714 29.1983 16.1434 26.3624 16.0429 23.1204C15.9016 18.5623 19.6913 14.5 24.2518 14.5C28.8123 14.5 32.6007 18.5623 32.4615 23.1201C32.3607 26.4213 30.3345 29.2569 28.4524 31.2074C27.4995 32.1948 26.5549 32.985 25.8489 33.5284C25.4954 33.8005 25.2002 34.0119 24.9918 34.1562C24.8876 34.2284 24.8049 34.284 24.7474 34.322C24.7187 34.341 24.6962 34.3557 24.6804 34.3659L24.6618 34.3779L24.6564 34.3814L24.6547 34.3825C24.6545 34.3826 24.6537 34.3831 24.2518 33.7499ZM24.2518 33.7499L24.6537 34.3831L24.2465 34.6416L23.842 34.3781L24.2518 33.7499Z" fill="#949494"/>
</symbol>

<!-- engine-departurecalendar-icon -->
<symbol id="engine-departurecalendar-icon" width="48" height="48" viewBox="0 0 48 48" fill="none">
<path fill-rule="evenodd" clip-rule="evenodd" d="M19.5859 21.6035C19.5859 21.1893 19.9217 20.8535 20.3359 20.8535H28.832C29.2462 20.8535 29.582 21.1893 29.582 21.6035C29.582 22.0177 29.2462 22.3535 28.832 22.3535H20.3359C19.9217 22.3535 19.5859 22.0177 19.5859 21.6035Z" fill="#949494"/>
<path fill-rule="evenodd" clip-rule="evenodd" d="M28.2227 14.25C28.6369 14.25 28.9727 14.5858 28.9727 15V17.5764C28.9727 17.9906 28.6369 18.3264 28.2227 18.3264C27.8085 18.3264 27.4727 17.9906 27.4727 17.5764V15C27.4727 14.5858 27.8085 14.25 28.2227 14.25Z" fill="#949494"/>
<path fill-rule="evenodd" clip-rule="evenodd" d="M20.9531 14.25C21.3673 14.25 21.7031 14.5858 21.7031 15V17.5764C21.7031 17.9906 21.3673 18.3264 20.9531 18.3264C20.5389 18.3264 20.2031 17.9906 20.2031 17.5764V15C20.2031 14.5858 20.5389 14.25 20.9531 14.25Z" fill="#949494"/>
<path fill-rule="evenodd" clip-rule="evenodd" d="M17.1232 16.9526C18.0422 16.079 19.3213 15.6719 20.7781 15.6719H28.3985C29.8586 15.6719 31.1384 16.0787 32.0561 16.9532C32.9794 17.8333 33.4386 19.094 33.4344 20.6013C33.4344 20.6011 33.4344 20.6015 33.4344 20.6013V28.8137C33.4344 30.3212 32.9731 31.5831 32.0497 32.4646C31.1316 33.341 29.8519 33.7504 28.3907 33.7504H20.7781C19.3168 33.7504 18.0361 33.3322 17.1179 32.4423C16.196 31.5488 15.7344 30.2716 15.7344 28.7456V20.5998C15.7344 19.0917 16.1984 17.8317 17.1232 16.9526ZM18.1566 18.0398C17.5955 18.5732 17.2344 19.4021 17.2344 20.5998V28.7456C17.2344 29.9683 17.5978 30.8185 18.1619 31.3652C18.7297 31.9156 19.5959 32.2504 20.7781 32.2504H28.3907C29.5808 32.2504 30.448 31.9198 31.0139 31.3796C31.5745 30.8445 31.9344 30.013 31.9344 28.8137V20.5998V20.5977C31.9379 19.3994 31.5798 18.5714 31.0212 18.0391C30.4568 17.5011 29.5897 17.1719 28.3985 17.1719H20.7781C19.5914 17.1719 18.7236 17.5008 18.1566 18.0398Z" fill="#949494"/>
<path fill-rule="evenodd" clip-rule="evenodd" d="M20.4492 27.2598C20.4492 26.8456 20.785 26.5098 21.1992 26.5098H27.9984C28.4126 26.5098 28.7484 26.8456 28.7484 27.2598C28.7484 27.6741 28.4126 28.0098 27.9984 28.0098H21.1992C20.785 28.0098 20.4492 27.6741 20.4492 27.2598Z" fill="#949494"/>
<path fill-rule="evenodd" clip-rule="evenodd" d="M23.7813 24.8246C24.0637 25.1275 24.047 25.6021 23.744 25.8846L22.2679 27.2605L23.744 28.6364C24.047 28.9188 24.0637 29.3934 23.7813 29.6964C23.4988 29.9994 23.0243 30.0161 22.7213 29.7337L20.6566 27.8091C20.5044 27.6672 20.418 27.4685 20.418 27.2605C20.418 27.0524 20.5044 26.8537 20.6566 26.7119L22.7213 24.7873C23.0243 24.5049 23.4988 24.5216 23.7813 24.8246Z" fill="#949494"/>
</symbol>

<!-- #engine-returncalendar-icon -->
<symbol id="engine-returncalendar-icon" width="49" height="48" viewBox="0 0 49 48" fill="none">
<path fill-rule="evenodd" clip-rule="evenodd" d="M28.9141 21.6035C28.9141 21.1893 28.5783 20.8535 28.1641 20.8535H19.668C19.2538 20.8535 18.918 21.1893 18.918 21.6035C18.918 22.0177 19.2538 22.3535 19.668 22.3535H28.1641C28.5783 22.3535 28.9141 22.0177 28.9141 21.6035Z" fill="#949494"/>
<path fill-rule="evenodd" clip-rule="evenodd" d="M20.2773 14.25C19.8631 14.25 19.5273 14.5858 19.5273 15V17.5764C19.5273 17.9906 19.8631 18.3264 20.2773 18.3264C20.6915 18.3264 21.0273 17.9906 21.0273 17.5764V15C21.0273 14.5858 20.6915 14.25 20.2773 14.25Z" fill="#949494"/>
<path fill-rule="evenodd" clip-rule="evenodd" d="M27.5469 14.25C27.1327 14.25 26.7969 14.5858 26.7969 15V17.5764C26.7969 17.9906 27.1327 18.3264 27.5469 18.3264C27.9611 18.3264 28.2969 17.9906 28.2969 17.5764V15C28.2969 14.5858 27.9611 14.25 27.5469 14.25Z" fill="#949494"/>
<path fill-rule="evenodd" clip-rule="evenodd" d="M31.3768 16.9526C30.4578 16.079 29.1787 15.6719 27.7219 15.6719H20.1015C18.6414 15.6719 17.3616 16.0787 16.4439 16.9532C15.5206 17.8333 15.0614 19.094 15.0656 20.6013C15.0656 20.6011 15.0656 20.6015 15.0656 20.6013V28.8137C15.0656 30.3212 15.5269 31.5831 16.4503 32.4646C17.3684 33.341 18.6481 33.7504 20.1093 33.7504H27.7219C29.1832 33.7504 30.4639 33.3322 31.3821 32.4423C32.304 31.5488 32.7656 30.2716 32.7656 28.7456V20.5998C32.7656 19.0917 32.3016 17.8317 31.3768 16.9526ZM30.3434 18.0398C30.9045 18.5732 31.2656 19.4021 31.2656 20.5998V28.7456C31.2656 29.9683 30.9022 30.8185 30.3381 31.3652C29.7703 31.9156 28.9041 32.2504 27.7219 32.2504H20.1093C18.9192 32.2504 18.052 31.9198 17.4861 31.3796C16.9255 30.8445 16.5656 30.013 16.5656 28.8137V20.5998V20.5977C16.5621 19.3994 16.9202 18.5714 17.4788 18.0391C18.0432 17.5011 18.9103 17.1719 20.1015 17.1719H27.7219C28.9086 17.1719 29.7764 17.5008 30.3434 18.0398Z" fill="#949494"/>
<path fill-rule="evenodd" clip-rule="evenodd" d="M28.0508 27.2598C28.0508 26.8456 27.715 26.5098 27.3008 26.5098H20.5016C20.0874 26.5098 19.7516 26.8456 19.7516 27.2598C19.7516 27.6741 20.0874 28.0098 20.5016 28.0098H27.3008C27.715 28.0098 28.0508 27.6741 28.0508 27.2598Z" fill="#949494"/>
<path fill-rule="evenodd" clip-rule="evenodd" d="M24.7187 24.8246C24.4363 25.1275 24.453 25.6021 24.756 25.8846L26.2321 27.2605L24.756 28.6364C24.453 28.9188 24.4363 29.3934 24.7187 29.6964C25.0012 29.9994 25.4757 30.0161 25.7787 29.7337L27.8434 27.8091C27.9956 27.6672 28.082 27.4685 28.082 27.2605C28.082 27.0524 27.9956 26.8537 27.8434 26.7119L25.7787 24.7873C25.4757 24.5049 25.0012 24.5216 24.7187 24.8246Z" fill="#949494"/>
</symbol>

<!-- #engine-flightclass-icon -->
<symbol id="engine-flightclass-icon" width="49" height="48" viewBox="0 0 49 48" fill="none">
<path d="M29.344 32.0455H20.1501C19.3901 32.0963 18.6268 32.0435 17.8811 31.8885C17.2328 31.703 16.6424 31.3555 16.1655 30.8788C15.6886 30.402 15.3409 29.8118 15.1551 29.1635C15.001 28.4177 14.9486 27.6544 14.9991 26.8945C14.9924 26.7064 15.0014 26.5181 15.0261 26.3315C15.0438 26.1624 15.0976 25.9989 15.1839 25.8523C15.2701 25.7057 15.3868 25.5792 15.5261 25.4815C15.7884 25.3001 16.0639 25.1383 16.3501 24.9975C16.5342 24.8998 16.6881 24.7537 16.7951 24.5748C16.9021 24.3959 16.9582 24.1912 16.9573 23.9828C16.9563 23.7744 16.8984 23.5702 16.7898 23.3923C16.6812 23.2144 16.5261 23.0696 16.3411 22.9735C16.0672 22.8456 15.8037 22.6965 15.5531 22.5275C15.4096 22.4295 15.2888 22.302 15.1986 22.1535C15.1084 22.0051 15.0509 21.839 15.0301 21.6665C15.006 21.4896 14.9967 21.311 15.0021 21.1325C14.9496 20.3624 15.0017 19.5887 15.1571 18.8325C15.3425 18.1844 15.6899 17.594 16.1664 17.1171C16.643 16.6403 17.233 16.2925 17.8811 16.1065C18.6283 15.9505 19.3934 15.8974 20.1551 15.9485H29.342C30.1054 15.8974 30.8721 15.9505 31.6211 16.1065C32.2673 16.2927 32.8557 16.6398 33.3312 17.1154C33.8067 17.5909 34.1538 18.1793 34.34 18.8255C34.4961 19.5745 34.5492 20.3412 34.4981 21.1045C34.507 21.2947 34.4973 21.4853 34.469 21.6735C34.4483 21.8445 34.3914 22.0091 34.3021 22.1564C34.2128 22.3036 34.0931 22.4302 33.9511 22.5275C33.7105 22.6915 33.4566 22.835 33.1921 22.9565C32.996 23.0506 32.8306 23.1984 32.715 23.3826C32.5994 23.5668 32.5384 23.7801 32.5391 23.9975C32.5372 24.2084 32.5941 24.4157 32.7032 24.5961C32.8123 24.7766 32.9695 24.9232 33.1571 25.0195C33.434 25.1473 33.6999 25.2978 33.952 25.4695C34.0948 25.5673 34.2151 25.6944 34.3048 25.8424C34.3944 25.9903 34.4515 26.1557 34.4721 26.3275C34.4963 26.5145 34.5053 26.7031 34.499 26.8915C34.5511 27.6545 34.4979 28.421 34.3411 29.1695C34.1553 29.8161 33.8084 30.4049 33.3328 30.8807C32.8572 31.3564 32.2685 31.7036 31.622 31.8895C30.8733 32.0449 30.1069 32.0974 29.344 32.0455ZM16.5061 26.6295C16.4991 26.7105 16.5001 26.7875 16.5001 26.8945C16.4617 27.514 16.4952 28.1358 16.6001 28.7475C16.7157 29.152 16.9325 29.5203 17.2299 29.8177C17.5273 30.1152 17.8956 30.3319 18.3001 30.4475C18.9115 30.5524 19.5329 30.586 20.1521 30.5475H29.3451C29.9668 30.5867 30.5911 30.5532 31.2051 30.4475C31.6095 30.3319 31.9778 30.1152 32.2752 29.8177C32.5727 29.5203 32.7894 29.152 32.9051 28.7475C33.0095 28.1334 33.043 27.5093 33.0051 26.8875C33.0051 26.7725 33.0051 26.6935 33.0051 26.6355C32.8901 26.5645 32.721 26.4775 32.465 26.3425C32.0366 26.1181 31.6777 25.7807 31.4273 25.3669C31.177 24.9531 31.0446 24.4787 31.0446 23.995C31.0446 23.5114 31.177 23.0369 31.4273 22.6231C31.6777 22.2093 32.0366 21.8719 32.465 21.6475C32.741 21.5035 32.907 21.4175 32.999 21.3655C33.006 21.2865 33.0051 21.2105 33.0051 21.1045C33.0442 20.4824 33.0106 19.8579 32.9051 19.2435C32.7893 18.8391 32.5726 18.4709 32.2751 18.1735C31.9777 17.876 31.6094 17.6592 31.2051 17.5435C30.5907 17.4379 29.9662 17.4044 29.344 17.4435H20.1571C19.5366 17.4051 18.9138 17.4386 18.3011 17.5435C17.8969 17.6597 17.5289 17.8766 17.2315 18.174C16.9341 18.4713 16.7172 18.8394 16.6011 19.2435C16.4974 19.8567 16.4639 20.4797 16.5011 21.1005C16.5011 21.2195 16.5011 21.3005 16.5011 21.3505C16.6151 21.4205 16.7831 21.5085 17.0391 21.6435C17.4688 21.8681 17.8285 22.2064 18.0789 22.6216C18.3294 23.0367 18.4609 23.5127 18.4591 23.9975C18.4532 24.4697 18.323 24.932 18.0816 25.3379C17.8402 25.7438 17.4962 26.0789 17.0841 26.3095C16.7911 26.4705 16.6051 26.5705 16.5061 26.6295Z" fill="#9A9A9A"/>
<path d="M26.463 22.3594H23.039C22.8401 22.3594 22.6494 22.2804 22.5087 22.1397C22.3681 21.999 22.2891 21.8083 22.2891 21.6094C22.2891 21.4105 22.3681 21.2197 22.5087 21.079C22.6494 20.9384 22.8401 20.8594 23.039 20.8594H26.463C26.6619 20.8594 26.8527 20.9384 26.9934 21.079C27.134 21.2197 27.213 21.4105 27.213 21.6094C27.213 21.8083 27.134 21.999 26.9934 22.1397C26.8527 22.2804 26.6619 22.3594 26.463 22.3594Z" fill="#9A9A9A"/>
<path d="M26.463 27.1328H23.039C22.8401 27.1328 22.6494 27.0538 22.5087 26.9131C22.3681 26.7725 22.2891 26.5817 22.2891 26.3828C22.2891 26.1839 22.3681 25.9931 22.5087 25.8525C22.6494 25.7118 22.8401 25.6328 23.039 25.6328H26.463C26.6619 25.6328 26.8527 25.7118 26.9934 25.8525C27.134 25.9931 27.213 26.1839 27.213 26.3828C27.213 26.5817 27.134 26.7725 26.9934 26.9131C26.8527 27.0538 26.6619 27.1328 26.463 27.1328Z" fill="#9A9A9A"/>
</symbol>


<!-- #engine-passenger-icon -->
<symbol id="engine-passenger-icon" width="48" height="48" viewBox="0 0 48 48" fill="none">
<path fill-rule="evenodd" clip-rule="evenodd" d="M24.3409 16.75C22.1635 16.75 20.3984 18.5151 20.3984 20.6925C20.3984 22.8699 22.1635 24.635 24.3409 24.635C26.5183 24.635 28.2834 22.8699 28.2834 20.6925C28.2834 18.5151 26.5183 16.75 24.3409 16.75ZM18.8984 20.6925C18.8984 17.6867 21.3351 15.25 24.3409 15.25C27.3467 15.25 29.7834 17.6867 29.7834 20.6925C29.7834 23.6983 27.3467 26.135 24.3409 26.135C21.3351 26.135 18.8984 23.6983 18.8984 20.6925Z" fill="#9A9A9A"/>
<path fill-rule="evenodd" clip-rule="evenodd" d="M17.1194 30.0591C17.1194 27.2197 19.4211 24.918 22.2605 24.918H26.5364C29.3757 24.918 31.6775 27.2197 31.6775 30.0591C31.6775 30.1416 31.6783 30.2253 31.6794 30.3113C31.6988 31.755 30.5153 32.7499 29.18 32.7499H19.6169C18.2815 32.7499 17.0981 31.755 17.1174 30.3113C17.1186 30.2253 17.1194 30.1416 17.1194 30.0591ZM22.2605 26.418C20.2495 26.418 18.6194 28.0481 18.6194 30.0591C18.6194 30.1508 18.6185 30.242 18.6173 30.3314C18.6106 30.8324 19.0072 31.2499 19.6169 31.2499H29.18C29.7896 31.2499 30.1863 30.8324 30.1795 30.3313C30.1784 30.242 30.1775 30.1508 30.1775 30.0591C30.1775 28.0481 28.5473 26.418 26.5364 26.418H22.2605Z" fill="#9A9A9A"/>
</symbol>

<!-- #engine-search-icon -->
<symbol id="engine-search-icon" width="48" height="48" viewBox="0 0 48 48" fill="none">
<path fill-rule="evenodd" clip-rule="evenodd" d="M16.0039 22.5809C16.0039 18.7 19.1619 15.543 23.0429 15.543C26.9229 15.543 30.0809 18.7 30.0809 22.5809C30.0809 26.4619 26.9229 29.6199 23.0429 29.6199C19.1619 29.6199 16.0039 26.4619 16.0039 22.5809ZM34.4989 33.0399L29.8999 28.4529C31.2559 26.8719 32.0809 24.8229 32.0809 22.5809C32.0809 17.598 28.0259 13.543 23.0429 13.543C18.0589 13.543 14.0039 17.598 14.0039 22.5809C14.0039 27.5649 18.0589 31.6199 23.0429 31.6199C25.0649 31.6199 26.9279 30.9439 28.4349 29.8169L33.0869 34.4559L34.4989 33.0399Z" fill="white"/>
</symbol>


<!-- engine-close-icon -->
<symbol xmlns="http://www.w3.org/2000/svg" id="engine-close-icon" viewBox="0 0 24 24" fill="none">
        <path d="M6.53033 5.46967C6.23744 5.17678 5.76256 5.17678 5.46967 5.46967C5.17678 5.76256 5.17678 6.23744 5.46967 6.53033L10.9393 12L5.46967 17.4697C5.17678 17.7626 5.17678 18.2374 5.46967 18.5303C5.76256 18.8232 6.23744 18.8232 6.53033 18.5303L12 13.0607L17.4697 18.5303C17.7626 18.8232 18.2374 18.8232 18.5303 18.5303C18.8232 18.2374 18.8232 17.7626 18.5303 17.4697L13.0607 12L18.5303 6.53033C18.8232 6.23744 18.8232 5.76256 18.5303 5.46967C18.2374 5.17678 17.7626 5.17678 17.4697 5.46967L12 10.9393L6.53033 5.46967Z" fill="#71717A"/>

    </symbol>


    <symbol xmlns="http://www.w3.org/2000/svg" id="engine-removeroute-icon" viewBox="0 0 24 24" fill="none">
        <path d="M6.53033 5.46967C6.23744 5.17678 5.76256 5.17678 5.46967 5.46967C5.17678 5.76256 5.17678 6.23744 5.46967 6.53033L10.9393 12L5.46967 17.4697C5.17678 17.7626 5.17678 18.2374 5.46967 18.5303C5.76256 18.8232 6.23744 18.8232 6.53033 18.5303L12 13.0607L17.4697 18.5303C17.7626 18.8232 18.2374 18.8232 18.5303 18.5303C18.8232 18.2374 18.8232 17.7626 18.5303 17.4697L13.0607 12L18.5303 6.53033C18.8232 6.23744 18.8232 5.76256 18.5303 5.46967C18.2374 5.17678 17.7626 5.17678 17.4697 5.46967L12 10.9393L6.53033 5.46967Z" fill="#71717A"/>

    </symbol>


    <symbol xmlns="http://www.w3.org/2000/svg" id="icon-menu-mobile" viewBox="0 0 48 48" fill="none">
        <path fill-rule="evenodd" clip-rule="evenodd" d="M32 32H16C15.448 32 15 31.553 15 31C15 30.447 15.448 30 16 30H32C32.552 30 33 30.447 33 31C33 31.553 32.552 32 32 32Z" fill="#fff"/>
        <path fill-rule="evenodd" clip-rule="evenodd" d="M32 18H16C15.448 18 15 17.553 15 17C15 16.447 15.448 16 16 16H32C32.552 16 33 16.447 33 17C33 17.553 32.552 18 32 18Z" fill="#fff"/>
        <path fill-rule="evenodd" clip-rule="evenodd" d="M32 25H16C15.448 25 15 24.553 15 24C15 23.447 15.448 23 16 23H32C32.552 23 33 23.447 33 24C33 24.553 32.552 25 32 25Z" fill="#fff"/>
    </symbol>

<symbol xmlns="http://www.w3.org/2000/svg" id="icon-close-menu-mobile" viewBox="0 0 48 48" fill="none">
        <path fill-rule="evenodd" clip-rule="evenodd" d="M28.6328 22.1805L21.3169 29.4377L19.9911 28.1225L27.3069 20.8652L28.6328 22.1805Z" fill="#A1A1AA"/>
        <path fill-rule="evenodd" clip-rule="evenodd" d="M21.3122 20.8628L28.6329 28.1264L27.3069 29.4415L19.9862 22.1779L21.3122 20.8628Z" fill="#A1A1AA"/>
        <path fill-rule="evenodd" clip-rule="evenodd" d="M11.8125 25.1632C11.8125 18.3149 17.4089 12.7632 24.3125 12.7632C31.216 12.7632 36.8125 18.3149 36.8125 25.1632C36.8125 32.0115 31.216 37.5632 24.3125 37.5632C17.4089 37.5632 11.8125 32.0115 11.8125 25.1632ZM24.3125 14.6232C18.4445 14.6232 13.6875 19.3421 13.6875 25.1632C13.6875 30.9843 18.4445 35.7032 24.3125 35.7032C30.1805 35.7032 34.9375 30.9843 34.9375 25.1632C34.9375 19.3421 30.1805 14.6232 24.3125 14.6232Z" fill="#A1A1AA"/>

    </symbol>


    <symbol xmlns="http://www.w3.org/2000/svg" id="icon-chevron-down-zinc" viewBox="0 0 48 48" fill="none">
        <path d="M31 20.5L24 27.5L17 20.5" stroke="#A1A1AA" stroke-width="1.5" stroke-linecap="round" stroke-linejoin="round"/>
    </symbol>

    <symbol xmlns="http://www.w3.org/2000/svg" id="icon-chevron-down-primary" viewBox="0 0 48 48" fill="none">
        <path d="M31 20.5L24 27.5L17 20.5" stroke="var(--primary-600)" stroke-width="1.5" stroke-linecap="round" stroke-linejoin="round"/>
    </symbol>
    
<!-- search engine -->
</svg>
